<mxfile host="www.draw.io" modified="2019-11-04T05:45:34.625Z" agent="Mozilla/5.0 (Windows NT 10.0; Win64; x64) AppleWebKit/537.36 (KHTML, like Gecko) Chrome/77.0.3865.90 Safari/537.36" etag="bBINKIot8mIVV5AHquMh" version="12.1.9" type="github" pages="1">
  <diagram id="WAMK5fr8SlsgADunG_IS" name="Page-1">
    <mxGraphModel dx="1278" dy="548" grid="1" gridSize="10" guides="1" tooltips="1" connect="1" arrows="1" fold="1" page="1" pageScale="1" pageWidth="827" pageHeight="1169" math="0" shadow="0">
      <root>
        <mxCell id="0"/>
        <mxCell id="1" parent="0"/>
        <mxCell id="6fEDNtNogTVaxFAgV7XY-5" value="" style="rounded=0;whiteSpace=wrap;html=1;" vertex="1" parent="1">
          <mxGeometry x="30" y="130" width="1060" height="1550" as="geometry"/>
        </mxCell>
        <mxCell id="nhIWn7uh7do_YO2TVnJS-1" value="&lt;b&gt;&lt;font style=&quot;font-size: 18px&quot;&gt;数据处理流程&lt;/font&gt;&lt;/b&gt;" style="text;html=1;strokeColor=none;fillColor=none;align=center;verticalAlign=middle;whiteSpace=wrap;rounded=0;" parent="1" vertex="1">
          <mxGeometry x="40" y="30" width="120" height="40" as="geometry"/>
        </mxCell>
        <mxCell id="6fEDNtNogTVaxFAgV7XY-6" value="&lt;b&gt;三方数据处理&lt;/b&gt;" style="text;html=1;strokeColor=none;fillColor=none;align=center;verticalAlign=middle;whiteSpace=wrap;rounded=0;" vertex="1" parent="1">
          <mxGeometry x="40" y="140" width="120" height="40" as="geometry"/>
        </mxCell>
        <mxCell id="6fEDNtNogTVaxFAgV7XY-10" style="edgeStyle=orthogonalEdgeStyle;rounded=0;orthogonalLoop=1;jettySize=auto;html=1;exitX=1;exitY=0.5;exitDx=0;exitDy=0;" edge="1" parent="1" source="6fEDNtNogTVaxFAgV7XY-7" target="6fEDNtNogTVaxFAgV7XY-8">
          <mxGeometry relative="1" as="geometry"/>
        </mxCell>
        <mxCell id="6fEDNtNogTVaxFAgV7XY-7" value="三方数据初始表" style="rounded=0;whiteSpace=wrap;html=1;" vertex="1" parent="1">
          <mxGeometry x="70" y="190" width="120" height="60" as="geometry"/>
        </mxCell>
        <mxCell id="6fEDNtNogTVaxFAgV7XY-11" style="edgeStyle=orthogonalEdgeStyle;rounded=0;orthogonalLoop=1;jettySize=auto;html=1;exitX=1;exitY=0.5;exitDx=0;exitDy=0;" edge="1" parent="1" source="6fEDNtNogTVaxFAgV7XY-8" target="6fEDNtNogTVaxFAgV7XY-9">
          <mxGeometry relative="1" as="geometry"/>
        </mxCell>
        <mxCell id="6fEDNtNogTVaxFAgV7XY-8" value="问题数据过滤，处理" style="rounded=0;whiteSpace=wrap;html=1;" vertex="1" parent="1">
          <mxGeometry x="240" y="190" width="120" height="60" as="geometry"/>
        </mxCell>
        <mxCell id="6fEDNtNogTVaxFAgV7XY-15" style="edgeStyle=orthogonalEdgeStyle;rounded=0;orthogonalLoop=1;jettySize=auto;html=1;exitX=1;exitY=0.5;exitDx=0;exitDy=0;entryX=0;entryY=0.5;entryDx=0;entryDy=0;" edge="1" parent="1" source="6fEDNtNogTVaxFAgV7XY-9" target="6fEDNtNogTVaxFAgV7XY-13">
          <mxGeometry relative="1" as="geometry"/>
        </mxCell>
        <mxCell id="6fEDNtNogTVaxFAgV7XY-9" value="对账对应设计表" style="rounded=0;whiteSpace=wrap;html=1;" vertex="1" parent="1">
          <mxGeometry x="413" y="190" width="120" height="60" as="geometry"/>
        </mxCell>
        <mxCell id="6fEDNtNogTVaxFAgV7XY-13" value="逻辑异常数据标记" style="rounded=0;whiteSpace=wrap;html=1;" vertex="1" parent="1">
          <mxGeometry x="610" y="190" width="120" height="60" as="geometry"/>
        </mxCell>
        <mxCell id="6fEDNtNogTVaxFAgV7XY-16" value="详细流程" style="text;html=1;strokeColor=none;fillColor=none;align=center;verticalAlign=middle;whiteSpace=wrap;rounded=0;" vertex="1" parent="1">
          <mxGeometry x="60" y="280" width="80" height="30" as="geometry"/>
        </mxCell>
        <mxCell id="6fEDNtNogTVaxFAgV7XY-19" style="edgeStyle=orthogonalEdgeStyle;rounded=0;orthogonalLoop=1;jettySize=auto;html=1;exitX=1;exitY=0.25;exitDx=0;exitDy=0;entryX=0;entryY=0.3;entryDx=0;entryDy=0;" edge="1" parent="1" source="6fEDNtNogTVaxFAgV7XY-17" target="6fEDNtNogTVaxFAgV7XY-18">
          <mxGeometry relative="1" as="geometry"/>
        </mxCell>
        <mxCell id="6fEDNtNogTVaxFAgV7XY-21" value="1" style="text;html=1;resizable=0;points=[];align=center;verticalAlign=middle;labelBackgroundColor=#ffffff;" vertex="1" connectable="0" parent="6fEDNtNogTVaxFAgV7XY-19">
          <mxGeometry x="-0.0689" y="1" relative="1" as="geometry">
            <mxPoint as="offset"/>
          </mxGeometry>
        </mxCell>
        <mxCell id="6fEDNtNogTVaxFAgV7XY-24" value="3" style="edgeStyle=orthogonalEdgeStyle;rounded=0;orthogonalLoop=1;jettySize=auto;html=1;exitX=0.5;exitY=1;exitDx=0;exitDy=0;entryX=0.5;entryY=1;entryDx=0;entryDy=0;" edge="1" parent="1" source="6fEDNtNogTVaxFAgV7XY-17" target="6fEDNtNogTVaxFAgV7XY-18">
          <mxGeometry relative="1" as="geometry"/>
        </mxCell>
        <mxCell id="6fEDNtNogTVaxFAgV7XY-17" value="查询对应数据，同一订单号，支付方式等信息不一致的数据标记为问题数据记录" style="rounded=0;whiteSpace=wrap;html=1;" vertex="1" parent="1">
          <mxGeometry x="80" y="359.5" width="190" height="61" as="geometry"/>
        </mxCell>
        <mxCell id="6fEDNtNogTVaxFAgV7XY-22" style="edgeStyle=orthogonalEdgeStyle;rounded=0;orthogonalLoop=1;jettySize=auto;html=1;exitX=0;exitY=0.7;exitDx=0;exitDy=0;entryX=1;entryY=0.75;entryDx=0;entryDy=0;" edge="1" parent="1" source="6fEDNtNogTVaxFAgV7XY-18" target="6fEDNtNogTVaxFAgV7XY-17">
          <mxGeometry relative="1" as="geometry"/>
        </mxCell>
        <mxCell id="6fEDNtNogTVaxFAgV7XY-23" value="2" style="text;html=1;resizable=0;points=[];align=center;verticalAlign=middle;labelBackgroundColor=#ffffff;" vertex="1" connectable="0" parent="6fEDNtNogTVaxFAgV7XY-22">
          <mxGeometry x="0.0729" y="-1" relative="1" as="geometry">
            <mxPoint as="offset"/>
          </mxGeometry>
        </mxCell>
        <mxCell id="6fEDNtNogTVaxFAgV7XY-18" value="数据库" style="shape=cylinder;whiteSpace=wrap;html=1;boundedLbl=1;backgroundOutline=1;" vertex="1" parent="1">
          <mxGeometry x="590" y="352.5" width="100" height="75" as="geometry"/>
        </mxCell>
        <mxCell id="6fEDNtNogTVaxFAgV7XY-28" style="edgeStyle=orthogonalEdgeStyle;rounded=0;orthogonalLoop=1;jettySize=auto;html=1;exitX=0;exitY=0.7;exitDx=0;exitDy=0;entryX=1;entryY=0.75;entryDx=0;entryDy=0;" edge="1" parent="1" source="6fEDNtNogTVaxFAgV7XY-25" target="6fEDNtNogTVaxFAgV7XY-26">
          <mxGeometry relative="1" as="geometry"/>
        </mxCell>
        <mxCell id="6fEDNtNogTVaxFAgV7XY-30" value="5" style="text;html=1;resizable=0;points=[];align=center;verticalAlign=middle;labelBackgroundColor=#ffffff;" vertex="1" connectable="0" parent="6fEDNtNogTVaxFAgV7XY-28">
          <mxGeometry x="0.1356" y="1" relative="1" as="geometry">
            <mxPoint as="offset"/>
          </mxGeometry>
        </mxCell>
        <mxCell id="6fEDNtNogTVaxFAgV7XY-25" value="数据库" style="shape=cylinder;whiteSpace=wrap;html=1;boundedLbl=1;backgroundOutline=1;" vertex="1" parent="1">
          <mxGeometry x="610" y="512.5" width="90" height="65" as="geometry"/>
        </mxCell>
        <mxCell id="6fEDNtNogTVaxFAgV7XY-27" style="edgeStyle=orthogonalEdgeStyle;rounded=0;orthogonalLoop=1;jettySize=auto;html=1;exitX=1;exitY=0.25;exitDx=0;exitDy=0;entryX=0;entryY=0.3;entryDx=0;entryDy=0;" edge="1" parent="1" source="6fEDNtNogTVaxFAgV7XY-26" target="6fEDNtNogTVaxFAgV7XY-25">
          <mxGeometry relative="1" as="geometry"/>
        </mxCell>
        <mxCell id="6fEDNtNogTVaxFAgV7XY-29" value="4" style="text;html=1;resizable=0;points=[];align=center;verticalAlign=middle;labelBackgroundColor=#ffffff;" vertex="1" connectable="0" parent="6fEDNtNogTVaxFAgV7XY-27">
          <mxGeometry x="-0.1387" relative="1" as="geometry">
            <mxPoint as="offset"/>
          </mxGeometry>
        </mxCell>
        <mxCell id="6fEDNtNogTVaxFAgV7XY-32" value="6" style="edgeStyle=orthogonalEdgeStyle;rounded=0;orthogonalLoop=1;jettySize=auto;html=1;exitX=0.5;exitY=1;exitDx=0;exitDy=0;" edge="1" parent="1" source="6fEDNtNogTVaxFAgV7XY-26" target="6fEDNtNogTVaxFAgV7XY-31">
          <mxGeometry relative="1" as="geometry"/>
        </mxCell>
        <mxCell id="6fEDNtNogTVaxFAgV7XY-26" value="开始数据抽取" style="rounded=0;whiteSpace=wrap;html=1;" vertex="1" parent="1">
          <mxGeometry x="80" y="500" width="180" height="90" as="geometry"/>
        </mxCell>
        <mxCell id="6fEDNtNogTVaxFAgV7XY-34" value="7 是" style="edgeStyle=orthogonalEdgeStyle;rounded=0;orthogonalLoop=1;jettySize=auto;html=1;exitX=0.5;exitY=1;exitDx=0;exitDy=0;entryX=0.5;entryY=0;entryDx=0;entryDy=0;" edge="1" parent="1" source="6fEDNtNogTVaxFAgV7XY-31" target="6fEDNtNogTVaxFAgV7XY-33">
          <mxGeometry relative="1" as="geometry"/>
        </mxCell>
        <mxCell id="6fEDNtNogTVaxFAgV7XY-36" style="edgeStyle=orthogonalEdgeStyle;rounded=0;orthogonalLoop=1;jettySize=auto;html=1;exitX=1;exitY=0.5;exitDx=0;exitDy=0;" edge="1" parent="1" source="6fEDNtNogTVaxFAgV7XY-31" target="6fEDNtNogTVaxFAgV7XY-35">
          <mxGeometry relative="1" as="geometry"/>
        </mxCell>
        <mxCell id="6fEDNtNogTVaxFAgV7XY-37" value="7 否" style="text;html=1;resizable=0;points=[];align=center;verticalAlign=middle;labelBackgroundColor=#ffffff;" vertex="1" connectable="0" parent="6fEDNtNogTVaxFAgV7XY-36">
          <mxGeometry x="-0.1228" y="-2" relative="1" as="geometry">
            <mxPoint as="offset"/>
          </mxGeometry>
        </mxCell>
        <mxCell id="6fEDNtNogTVaxFAgV7XY-31" value="是否合并支付" style="rhombus;whiteSpace=wrap;html=1;" vertex="1" parent="1">
          <mxGeometry x="120" y="640" width="100" height="90" as="geometry"/>
        </mxCell>
        <mxCell id="6fEDNtNogTVaxFAgV7XY-38" style="edgeStyle=orthogonalEdgeStyle;rounded=0;orthogonalLoop=1;jettySize=auto;html=1;exitX=0.5;exitY=1;exitDx=0;exitDy=0;entryX=0;entryY=0.5;entryDx=0;entryDy=0;" edge="1" parent="1" source="6fEDNtNogTVaxFAgV7XY-33" target="6fEDNtNogTVaxFAgV7XY-35">
          <mxGeometry relative="1" as="geometry"/>
        </mxCell>
        <mxCell id="6fEDNtNogTVaxFAgV7XY-33" value="对应账单求和，合并为一个订单" style="rounded=0;whiteSpace=wrap;html=1;" vertex="1" parent="1">
          <mxGeometry x="110" y="790" width="120" height="60" as="geometry"/>
        </mxCell>
        <mxCell id="6fEDNtNogTVaxFAgV7XY-40" style="edgeStyle=orthogonalEdgeStyle;rounded=0;orthogonalLoop=1;jettySize=auto;html=1;exitX=1;exitY=0.5;exitDx=0;exitDy=0;entryX=0.5;entryY=1;entryDx=0;entryDy=0;" edge="1" parent="1" source="6fEDNtNogTVaxFAgV7XY-35" target="6fEDNtNogTVaxFAgV7XY-25">
          <mxGeometry relative="1" as="geometry"/>
        </mxCell>
        <mxCell id="6fEDNtNogTVaxFAgV7XY-42" value="8" style="text;html=1;resizable=0;points=[];align=center;verticalAlign=middle;labelBackgroundColor=#ffffff;" vertex="1" connectable="0" parent="6fEDNtNogTVaxFAgV7XY-40">
          <mxGeometry x="-0.3756" y="1" relative="1" as="geometry">
            <mxPoint as="offset"/>
          </mxGeometry>
        </mxCell>
        <mxCell id="6fEDNtNogTVaxFAgV7XY-44" style="edgeStyle=orthogonalEdgeStyle;rounded=0;orthogonalLoop=1;jettySize=auto;html=1;exitX=0.5;exitY=1;exitDx=0;exitDy=0;" edge="1" parent="1" source="6fEDNtNogTVaxFAgV7XY-35" target="6fEDNtNogTVaxFAgV7XY-43">
          <mxGeometry relative="1" as="geometry"/>
        </mxCell>
        <mxCell id="6fEDNtNogTVaxFAgV7XY-35" value="形成新的订单数据" style="rounded=0;whiteSpace=wrap;html=1;" vertex="1" parent="1">
          <mxGeometry x="210" y="920" width="120" height="60" as="geometry"/>
        </mxCell>
        <mxCell id="6fEDNtNogTVaxFAgV7XY-43" value="更新抽取标记" style="rounded=0;whiteSpace=wrap;html=1;" vertex="1" parent="1">
          <mxGeometry x="210" y="1030" width="120" height="60" as="geometry"/>
        </mxCell>
        <mxCell id="6fEDNtNogTVaxFAgV7XY-48" style="edgeStyle=orthogonalEdgeStyle;rounded=0;orthogonalLoop=1;jettySize=auto;html=1;exitX=1;exitY=0.25;exitDx=0;exitDy=0;entryX=0;entryY=0.3;entryDx=0;entryDy=0;" edge="1" parent="1" source="6fEDNtNogTVaxFAgV7XY-45" target="6fEDNtNogTVaxFAgV7XY-47">
          <mxGeometry relative="1" as="geometry"/>
        </mxCell>
        <mxCell id="6fEDNtNogTVaxFAgV7XY-51" style="edgeStyle=orthogonalEdgeStyle;rounded=0;orthogonalLoop=1;jettySize=auto;html=1;exitX=0.5;exitY=1;exitDx=0;exitDy=0;entryX=0.5;entryY=0;entryDx=0;entryDy=0;" edge="1" parent="1" source="6fEDNtNogTVaxFAgV7XY-45" target="6fEDNtNogTVaxFAgV7XY-50">
          <mxGeometry relative="1" as="geometry"/>
        </mxCell>
        <mxCell id="6fEDNtNogTVaxFAgV7XY-45" value="已抽取的账单，异常判断，只有退费，没有支付的时候，记录标记，不参与对账" style="rounded=0;whiteSpace=wrap;html=1;" vertex="1" parent="1">
          <mxGeometry x="140" y="1160" width="130" height="70" as="geometry"/>
        </mxCell>
        <mxCell id="6fEDNtNogTVaxFAgV7XY-49" style="edgeStyle=orthogonalEdgeStyle;rounded=0;orthogonalLoop=1;jettySize=auto;html=1;exitX=0;exitY=0.7;exitDx=0;exitDy=0;entryX=1;entryY=0.75;entryDx=0;entryDy=0;" edge="1" parent="1" source="6fEDNtNogTVaxFAgV7XY-47" target="6fEDNtNogTVaxFAgV7XY-45">
          <mxGeometry relative="1" as="geometry"/>
        </mxCell>
        <mxCell id="6fEDNtNogTVaxFAgV7XY-47" value="数据库" style="shape=cylinder;whiteSpace=wrap;html=1;boundedLbl=1;backgroundOutline=1;" vertex="1" parent="1">
          <mxGeometry x="590" y="1171" width="90" height="60" as="geometry"/>
        </mxCell>
        <mxCell id="6fEDNtNogTVaxFAgV7XY-50" value="更新标记状态" style="rounded=0;whiteSpace=wrap;html=1;" vertex="1" parent="1">
          <mxGeometry x="150" y="1300" width="110" height="50" as="geometry"/>
        </mxCell>
      </root>
    </mxGraphModel>
  </diagram>
</mxfile>
